<svg width="216" height="82" viewBox="0 0 216 82" fill="none" xmlns="http://www.w3.org/2000/svg">
<g clip-path="url(#clip0_1300_4470)">
<path fill-rule="evenodd" clip-rule="evenodd" d="M96.2739 51.3033L96.0628 51.0691C96.0628 51.0691 83.7203 35.9938 83.0093 35.269C82.2983 34.5443 82.7538 34.299 82.7538 34.299C95.4851 32.5372 94.9408 18.9003 94.9408 18.9003C94.9408 2.38652 78.7655 1.27148 78.7655 1.27148H59.2685C54.2693 1.27148 54.0916 6.46757 54.0916 6.46757V53.21C54.0916 55.6631 55.9913 57.6367 58.3353 57.6367C60.6794 57.6367 62.5791 55.6631 62.5791 53.21V36.4733C62.5791 36.4733 69.7336 36.4733 71.4555 36.4733C73.1775 36.4733 73.844 37.488 73.844 37.488L89.7416 56.6332L89.886 56.8004C90.5859 57.2688 91.4302 57.5475 92.3301 57.5475C94.7519 57.5475 96.7072 55.5851 96.7072 53.1654C96.7072 52.4964 96.5627 51.8608 96.2961 51.3033H96.2739ZM62.5569 28.2889V9.61198H78.9877C78.9877 9.61198 86.2421 11.0615 86.2421 18.7442C86.2421 26.4268 80.7874 28.3669 78.7211 28.2889C76.6992 28.2108 62.5569 28.2889 62.5569 28.2889Z" fill="black"/>
<path d="M105.706 23.9175C108.705 -0.981298 127.458 0.178342 130.68 0.178342C146.888 1.72825 150.043 14.2501 150.043 14.2501L150.066 14.3393C150.121 14.607 150.155 14.8857 150.155 15.1756C150.155 17.4615 148.31 19.3124 146.044 19.3124C144.944 19.3124 143.956 18.8776 143.222 18.1751L143.145 18.097C142.256 17.2831 141.823 16.3464 141.823 16.3464C136.979 6.99123 127.458 8.30698 127.458 8.30698C112.627 10.9385 114.471 25.7908 114.471 33.6741C114.471 41.5575 119.315 49.7642 129.224 49.7642C136.912 49.7642 140.712 44.2893 142.034 41.8139L142.567 40.7992C143.3 39.6507 144.567 38.8925 146.022 38.8925C148.288 38.8925 150.066 40.7435 150.121 43.0182C150.132 43.5645 149.899 44.5012 149.899 44.5012C149.199 47.2219 141.445 60.5912 126.081 58.0378C106.406 54.6369 105.873 36.4617 105.639 30.2733C105.639 30.2733 105.595 25.0437 105.717 23.9287L105.706 23.9175Z" fill="black"/>
<path d="M178.006 53.0202V7.09176C178.006 7.09176 177.672 2.18558 183.283 1.1709H210.523L211.301 1.1932C213.6 1.1932 215.511 3.02186 215.511 5.33C215.511 7.63813 213.645 9.50024 211.356 9.50024H210.556H186.393V26.2593H209.812C212.189 26.2704 214.056 28.0545 214.056 30.4518C214.056 32.8492 212.234 34.767 209.856 34.767H186.438V53.5331C186.427 55.8636 184.538 57.7591 182.216 57.7591C179.894 57.7591 178.006 55.8636 178.006 53.5331V53.0202Z" fill="black"/>
<path fill-rule="evenodd" clip-rule="evenodd" d="M7.3208 45.0142C10.0759 46.6533 14.6641 49.9426 21.6964 50.0876C28.7286 50.266 34.1389 48.192 34.6388 42.3604C35.0832 37.0193 30.5283 35.4917 28.0287 34.8004C25.5513 34.0868 17.086 32.2023 13.2754 31.0204C11.2424 30.396 1.46615 27.0397 1.85498 16.5695C2.25492 5.74245 12.3978 0 21.5964 0C29.8618 0 35.8497 2.7207 38.7493 5.63095L39.1936 6.14387C39.6269 6.79059 39.8935 7.58227 39.8935 8.4297C39.8935 10.6709 38.0605 12.4996 35.8164 12.4996C35.1832 12.4996 34.6166 12.3658 34.0833 12.1093L33.9944 12.0201C33.9944 12.0201 29.2174 8.84227 22.5184 8.4966C15.5084 8.12864 10.8758 11.2619 10.8758 16.6029C10.8758 21.944 17.2526 23.3824 17.2526 23.3824C19.0079 23.9399 21.0298 24.3079 26.1957 25.5344C34.3611 27.4857 40.749 29.6489 42.9597 37.4319C43.5485 41.9812 43.3486 49.4632 36.9162 54.2132C33.5612 56.2092 30.2617 58.3723 22.9628 58.3723C17.7636 58.3723 7.10972 57.3911 1.15509 50.5782L0.92179 50.1099C0.655164 49.5524 0.510742 48.9391 0.510742 48.2812C0.510742 45.9619 2.38823 44.0887 4.69898 44.0887C5.55441 44.0887 6.35428 44.3451 7.00974 44.78L7.33191 45.003L7.3208 45.0142Z" fill="black"/>
<path d="M167.763 54.0458C167.763 56.142 166.074 57.848 163.974 57.848C161.886 57.848 160.197 56.1532 160.197 54.0458V49.3849C160.197 47.2886 161.897 45.5938 163.974 45.5938C166.063 45.5938 167.763 47.2998 167.763 49.3849V54.0458Z" fill="black"/>
<path d="M1.65538 79.7367C2.12197 80.0154 2.89963 80.5729 4.08833 80.5952C5.27704 80.6287 6.18801 80.2719 6.27688 79.2906C6.35465 78.3875 5.57699 78.1198 5.15484 78.0083C4.73268 77.8857 3.29957 77.5735 2.65522 77.3616C2.31083 77.2613 0.655531 76.6926 0.722188 74.9085C0.788844 73.0687 2.49969 72.0986 4.05501 72.0986C5.45479 72.0986 6.46574 72.5669 6.95456 73.0576L7.03232 73.1468C7.09898 73.2583 7.14342 73.3921 7.14342 73.537C7.14342 73.9161 6.83235 74.2284 6.45463 74.2284C6.35465 74.2284 6.25466 74.2061 6.16579 74.1615H6.15468C6.15468 74.1615 5.34369 73.6039 4.21054 73.5482C3.02183 73.4813 2.24417 74.0165 2.24417 74.9308C2.24417 75.8452 3.32179 76.0793 3.32179 76.0793C3.62174 76.1797 3.96613 76.2354 4.83266 76.4473C6.21023 76.7818 7.29895 77.1386 7.66556 78.4655C7.76554 79.246 7.73221 80.506 6.64349 81.3089C6.07691 81.6545 5.52145 82.0113 4.2883 82.0113C3.41066 82.0113 1.61094 81.8441 0.599985 80.6844L0.566656 80.6064C0.522219 80.5172 0.5 80.4057 0.5 80.2942C0.5 79.9039 0.811063 79.5805 1.211 79.5805C1.35542 79.5805 1.48874 79.6251 1.59983 79.692L1.65538 79.7255V79.7367Z" fill="black"/>
<path d="M13.2425 80.6171C13.2425 80.6171 10.6207 80.7398 10.5429 77.049C10.4652 73.3582 13.2425 73.4586 13.2425 73.4586C13.2425 73.4586 15.9199 73.3359 15.931 77.049C15.9532 80.7509 13.2425 80.6171 13.2425 80.6171ZM13.2425 72.1205C13.2425 72.1205 9.05429 71.9756 9.0765 77.0267C9.08761 82.0667 13.2425 81.9886 13.2425 81.9886C13.2425 81.9886 17.4308 82.089 17.4197 77.0379C17.4085 71.9867 13.2425 72.1205 13.2425 72.1205Z" fill="black"/>
<path d="M23.1298 80.6171C23.1298 80.6171 20.508 80.7398 20.4191 77.049C20.3413 73.3582 23.1298 73.4586 23.1298 73.4586C23.1298 73.4586 25.8072 73.3359 25.8183 77.049C25.8405 80.7509 23.1298 80.6171 23.1298 80.6171ZM23.1298 72.1205C23.1298 72.1205 18.9415 71.9756 18.9527 77.0267C18.9527 82.0667 23.1298 81.9886 23.1298 81.9886C23.1298 81.9886 27.318 82.089 27.2958 77.0379C27.2847 71.9867 23.1298 72.1205 23.1298 72.1205Z" fill="black"/>
<path d="M30.8065 76.9042V73.6929H33.6283C33.6283 73.6929 34.8726 73.9382 34.8726 75.2651C34.8726 76.592 33.9283 76.9153 33.5839 76.9042C33.2395 76.893 30.8065 76.9042 30.8065 76.9042ZM36.6056 80.8626L36.5723 80.818C36.5723 80.818 34.4504 78.2311 34.3282 78.1084C34.206 77.9858 34.2838 77.9412 34.2838 77.9412C36.4723 77.6401 36.3723 75.2985 36.3723 75.2985C36.3723 72.4663 33.595 72.2656 33.595 72.2656H30.2511C29.3845 72.2656 29.3623 73.1577 29.3623 73.1577V81.1859C29.3623 81.6097 29.6845 81.9442 30.0955 81.9442C30.5066 81.9442 30.8176 81.5985 30.8176 81.1859V78.3091H32.3396C32.6285 78.3091 32.7507 78.4875 32.7507 78.4875L35.4836 81.7769L35.5058 81.7992C35.628 81.8884 35.7724 81.933 35.928 81.933C36.339 81.933 36.6834 81.5985 36.6834 81.1859C36.6834 81.0633 36.6501 80.9629 36.6056 80.8626Z" fill="black"/>
<path d="M38.5164 81.1859C38.5164 81.6097 38.8385 81.9442 39.2496 81.9442C39.6606 81.9442 39.9717 81.5985 39.9717 81.1859V73.0239C39.9717 72.6001 39.6384 72.2656 39.2496 72.2656C38.8607 72.2656 38.5164 72.6113 38.5164 73.0239V81.1859Z" fill="black"/>
<path d="M47.7816 80.1932C47.7816 80.1932 47.8483 80.3716 47.8483 80.4162C47.8483 80.6057 47.7261 80.6726 47.5928 80.6726C47.4595 80.6726 47.3373 80.55 47.3373 80.4162C47.3373 80.4162 47.3373 80.3493 47.4039 80.2489L47.6039 79.8364L47.7816 80.1932ZM53.103 80.9737L52.0032 73.3691C51.9365 72.6778 51.3477 72.1426 50.6145 72.1426C50.0257 72.1426 49.5258 72.4994 49.3258 73.0012L47.5928 76.8815L45.8597 73.0012C45.6597 72.4994 45.1598 72.1426 44.571 72.1426C43.8489 72.1426 43.249 72.689 43.1823 73.3691L43.1601 73.5141L42.0825 81.1855C42.0825 81.6093 42.4158 81.9438 42.8157 81.9438C43.2157 81.9438 43.5378 81.5981 43.5712 81.2079L44.5044 73.8486C44.5044 73.7928 44.5599 73.7482 44.6155 73.7482C44.671 73.7482 44.6932 73.7817 44.7154 73.8486L46.9151 78.3979L46.3596 79.6468L46.3041 79.7583C46.2041 79.959 46.1486 80.1709 46.1486 80.405C46.1486 81.2079 46.7929 81.8546 47.5928 81.8546C48.3927 81.8546 49.037 81.2079 49.037 80.405C49.037 80.1709 48.9814 79.9479 48.8815 79.7583L48.737 79.4126L48.2927 78.3979L50.459 73.8597V73.8374C50.5034 73.7705 50.5145 73.7259 50.5812 73.7259C50.6479 73.7259 50.6812 73.7705 50.6812 73.8374V73.882C50.8145 74.9636 51.6366 81.2636 51.6366 81.2636V81.3528C51.7255 81.6873 52.0254 81.9326 52.3698 81.9326C52.7809 81.9326 53.1141 81.5981 53.1141 81.1855V80.9625L53.103 80.9737Z" fill="black"/>
<path d="M60.6241 81.855C60.4686 81.855 60.3686 81.8438 60.3353 81.8438H60.3019H60.2686C58.48 81.4982 57.6468 80.45 57.258 79.6249C56.858 78.7886 56.8469 78.0304 56.8469 77.9189V76.2909C56.8803 74.1389 57.969 73.1131 58.8688 72.6336C59.7909 72.143 60.6797 72.1318 60.8019 72.1318C63.2793 72.1318 64.268 74.3619 64.3124 74.4623C64.4569 74.8079 64.3013 75.1982 63.9569 75.3431C63.6125 75.4881 63.2126 75.332 63.0682 74.9863C63.0349 74.9194 62.3794 73.4699 60.8019 73.4699H60.7908C60.7908 73.4699 60.1131 73.4699 59.4687 73.8267C58.6578 74.2839 58.2245 75.109 58.2023 76.2909V77.9189C58.2023 77.9189 58.2134 78.5099 58.5022 79.0785C58.8799 79.8256 59.5465 80.3051 60.4908 80.5058C60.7241 80.5169 62.3461 80.5615 63.0349 79.0451C63.1904 78.7106 63.5903 78.5545 63.9347 78.7106C64.2791 78.8667 64.4235 79.2681 64.268 79.6026C63.7903 80.6396 62.9571 81.3532 61.8573 81.6766C61.3462 81.8215 60.8907 81.855 60.613 81.855" fill="black"/>
<path d="M110.616 77.4616L112.016 73.5924C112.016 73.5924 112.127 73.5144 112.183 73.5144C112.238 73.5144 112.316 73.5478 112.405 73.6147L113.76 77.4616H110.627H110.616ZM116.393 80.8959L113.616 73.0126C113.582 72.9234 113.527 72.8342 113.46 72.7673C112.927 72.2321 112.416 72.1429 112.083 72.1652C111.361 72.2098 110.927 72.7673 110.883 72.8342C110.85 72.89 110.816 72.9457 110.794 73.0015L107.961 80.8625C107.828 81.2193 108.017 81.5984 108.372 81.7322C108.728 81.8549 109.116 81.6765 109.239 81.3197L110.139 78.822H114.238L115.127 81.3531C115.227 81.6319 115.482 81.8103 115.771 81.8103C115.849 81.8103 115.927 81.7991 115.993 81.7768C116.349 81.643 116.526 81.2639 116.404 80.9071" fill="black"/>
<path d="M87.9865 72.2549H81.5541C81.1764 72.2549 80.8765 72.5671 80.8765 72.9351C80.8765 73.303 81.1764 73.6152 81.5541 73.6152H84.0871V81.1083C84.0871 81.4874 84.387 81.7885 84.7648 81.7885C85.1425 81.7885 85.4424 81.4874 85.4424 81.1083V73.6152H87.9754C88.3531 73.6152 88.653 73.3142 88.653 72.9351C88.653 72.5559 88.3531 72.2549 87.9754 72.2549" fill="black"/>
<path d="M81.5096 80.2269H77.3881V73.0015C77.3881 72.6224 77.0881 72.3213 76.7104 72.3213C76.3327 72.3213 76.0327 72.6224 76.0327 73.0015V80.9071C76.0327 81.2862 76.3327 81.5873 76.7104 81.5873H81.5096C81.8874 81.5873 82.1873 81.2862 82.1873 80.9071C82.1873 80.528 81.8874 80.2269 81.5096 80.2269Z" fill="black"/>
<path d="M123.448 80.2272H119.326V72.9683C119.326 72.6003 119.026 72.2881 118.648 72.2881C118.271 72.2881 117.971 72.5891 117.971 72.9683V80.9073C117.971 81.2864 118.271 81.5875 118.648 81.5875H123.448C123.825 81.5875 124.125 81.2864 124.125 80.9073C124.125 80.5282 123.825 80.2272 123.448 80.2272Z" fill="black"/>
<path d="M101.24 73.5592H104.051C104.273 73.6039 105.384 73.8715 105.384 75.1426C105.384 75.5886 105.384 76.7594 103.506 76.7594H101.24V73.5592ZM106.961 80.6732L104.75 78.0083C106.05 77.6291 106.795 76.6145 106.795 75.1426C106.795 73.0575 105.095 72.277 104.195 72.1543C104.162 72.1543 104.139 72.1543 104.106 72.1543H100.54C100.151 72.1543 99.8401 72.4665 99.8401 72.8568V81.1861C99.8401 81.5764 100.151 81.8997 100.54 81.8997C100.929 81.8997 101.24 81.5875 101.24 81.1861V78.1755H103.04L105.872 81.5875C106.017 81.7548 106.217 81.844 106.417 81.844C106.572 81.844 106.739 81.7882 106.872 81.6767C107.172 81.4314 107.217 80.9743 106.961 80.6732Z" fill="black"/>
<path d="M69.8115 81.8436C69.4449 81.8436 69.156 81.7878 69.1116 81.7767H69.0894C67.3897 81.3418 66.6898 80.3494 66.3232 79.6023C65.9565 78.8441 65.9565 78.1751 65.9565 78.0301V73.0013C65.9565 72.6222 66.2565 72.3211 66.6342 72.3211C67.0119 72.3211 67.3119 72.6222 67.3119 73.0013V78.0636C67.3119 78.0636 67.3119 78.5542 67.5674 79.056C67.9118 79.7361 68.4784 80.2045 69.4005 80.4386C69.456 80.4498 69.8226 80.5055 70.1559 80.4386C71.1002 80.1933 71.7445 79.7138 72.0889 79.0002C72.3333 78.4984 72.2889 78.0636 72.2889 78.0524V78.019V72.979C72.2889 72.5999 72.5889 72.2988 72.9666 72.2988C73.3443 72.2988 73.6442 72.5999 73.6442 72.979V78.0078C73.6442 78.1528 73.6776 78.8218 73.311 79.58C72.9555 80.3271 72.1778 81.3083 70.4781 81.7432H70.4558C70.2226 81.799 70.0004 81.8213 69.8004 81.8213" fill="black"/>
<path d="M93.7522 81.81C93.3856 81.81 93.0967 81.7542 93.0523 81.743H93.0301C91.3414 81.3082 90.5527 80.3158 90.1972 79.5687C89.8306 78.7993 89.8306 78.1303 89.8306 77.9965V72.9677C89.8306 72.5886 90.1305 72.2875 90.5082 72.2875C90.886 72.2875 91.1859 72.5886 91.1859 72.9677V78.03C91.1859 78.03 91.1859 78.5206 91.4414 79.0224C91.7858 79.7025 92.4302 80.1708 93.3411 80.405C93.3967 80.4162 93.7633 80.4831 94.0855 80.405C95.0298 80.1597 95.6852 79.6802 96.0185 78.9666C96.2629 78.4648 96.2518 78.03 96.2518 78.0188V72.9565C96.2518 72.5774 96.5517 72.2764 96.9295 72.2764C97.3072 72.2764 97.6071 72.5774 97.6071 72.9565V77.9854C97.6071 78.1192 97.6071 78.7882 97.2405 79.5576C96.885 80.3047 96.1074 81.2859 94.4076 81.7208H94.3854C94.1521 81.7765 93.9299 81.7988 93.73 81.7988" fill="black"/>
<path d="M177.561 77.4507L178.961 73.5704C178.961 73.5704 179.072 73.4923 179.117 73.4923C179.172 73.4923 179.25 73.5258 179.339 73.5927L180.694 77.4507H177.55H177.561ZM183.361 80.8962L180.572 72.9794C180.539 72.8902 180.483 72.801 180.417 72.7341C179.883 72.1989 179.361 72.1097 179.028 72.132C178.306 72.1877 177.872 72.7452 177.828 72.8122C177.795 72.8679 177.761 72.9236 177.739 72.9906L174.895 80.8739C174.762 81.2307 174.951 81.621 175.306 81.7436C175.662 81.8663 176.051 81.6879 176.173 81.3311L177.084 78.8222H181.205L182.105 81.3533C182.205 81.6321 182.461 81.8105 182.75 81.8105C182.827 81.8105 182.905 81.7994 182.972 81.7771C183.327 81.6544 183.516 81.2641 183.383 80.9073" fill="black"/>
<path d="M189.793 72.3213H183.45C183.083 72.3213 182.783 72.6223 182.783 72.9903C182.783 73.3583 183.083 73.6593 183.45 73.6593H185.949V81.052C185.949 81.42 186.249 81.7211 186.616 81.7211C186.982 81.7211 187.282 81.42 187.282 81.052V73.6593H189.782C190.148 73.6593 190.448 73.3583 190.448 72.9903C190.448 72.6223 190.148 72.3213 189.782 72.3213" fill="black"/>
<path d="M133.735 73.6595C134.102 73.6595 134.39 73.3696 134.39 73.0016C134.39 72.6337 134.102 72.3438 133.735 72.3438H128.869C128.502 72.3438 128.214 72.6337 128.214 73.0016V81.1414C128.214 81.5094 128.502 81.7993 128.869 81.7993C129.236 81.7993 129.525 81.5094 129.525 81.1414V77.7851H133.524C133.891 77.7851 134.179 77.4952 134.179 77.1273C134.179 76.7593 133.891 76.4694 133.524 76.4694H129.525V73.6595H133.735Z" fill="black"/>
<path d="M199.48 80.5278C199.48 80.5278 196.881 80.6504 196.792 77.0043C196.714 73.3581 199.48 73.4584 199.48 73.4584C199.48 73.4584 202.135 73.3469 202.146 77.0043C202.158 80.6616 199.48 80.5278 199.48 80.5278ZM199.48 72.1315C199.48 72.1315 195.325 71.9977 195.336 76.9708C195.348 81.955 199.48 81.8658 199.48 81.8658C199.48 81.8658 203.624 81.9662 203.613 76.982C203.602 71.9977 199.48 72.1204 199.48 72.1204" fill="black"/>
<path d="M139.867 80.4838C139.867 80.4838 137.279 80.6064 137.201 76.9825C137.123 73.3587 139.867 73.459 139.867 73.459C139.867 73.459 142.5 73.3587 142.522 76.9825C142.545 80.6176 139.867 80.4838 139.867 80.4838ZM139.867 72.1433C139.867 72.1433 135.746 72.0095 135.757 76.9491C135.768 81.8999 139.867 81.8107 139.867 81.8107C139.867 81.8107 143.989 81.911 143.978 76.9602C143.967 72.0094 139.867 72.1321 139.867 72.1321" fill="black"/>
<path d="M149.832 81.9001C149.455 81.9001 149.177 81.8443 149.132 81.8332H149.11C147.411 81.3871 146.622 80.3948 146.266 79.6477C145.9 78.8783 145.9 78.2093 145.9 78.0755V72.8794C145.9 72.5003 146.211 72.1992 146.588 72.1992C146.966 72.1992 147.266 72.5003 147.266 72.8794V78.1201C147.266 78.1201 147.266 78.6218 147.522 79.1236C147.866 79.8038 148.51 80.2721 149.432 80.5174C149.488 80.5174 149.855 80.5955 150.188 80.5174C151.143 80.2721 151.788 79.7815 152.132 79.079C152.376 78.5772 152.365 78.1312 152.365 78.1312V72.8905C152.365 72.5114 152.665 72.2104 153.043 72.2104C153.421 72.2104 153.721 72.5114 153.721 72.8905V78.0866C153.721 78.2204 153.721 78.9006 153.354 79.6588C152.999 80.4171 152.21 81.3983 150.51 81.8443H150.488C150.255 81.9001 150.032 81.9224 149.832 81.9224" fill="black"/>
<path d="M156.742 81.7543C156.376 81.7543 156.076 81.4532 156.076 81.0853V73.2131C156.076 73.0793 156.109 72.9566 156.187 72.8451C156.254 72.7559 156.587 72.2653 157.176 72.2542C157.453 72.2542 157.876 72.3434 158.253 72.8563C158.72 73.4918 161.431 78.1193 162.475 79.9033V72.8897C162.475 72.5218 162.775 72.2207 163.141 72.2207C163.508 72.2207 163.808 72.5218 163.808 72.8897V80.8177C163.808 80.9738 163.753 81.1187 163.653 81.2414C163.13 81.8769 162.331 81.7989 161.842 81.4086C161.775 81.3529 161.72 81.2971 161.675 81.2191C160.264 78.7994 158.142 75.1867 157.387 74.0048V81.0964C157.387 81.4644 157.087 81.7654 156.72 81.7654" fill="black"/>
<path d="M167.808 80.2492H170.029C170.096 80.2492 170.707 80.2046 171.307 79.8813C172.096 79.4464 172.496 78.7216 172.518 77.6623C172.562 76.0232 172.318 74.9862 171.762 74.4064C171.318 73.9492 170.585 73.7262 169.529 73.7262C169.141 73.7262 168.73 73.7374 168.319 73.7374C168.13 73.7374 167.952 73.7374 167.808 73.7374V80.2604V80.2492ZM170.04 81.6542H167.108C166.719 81.6542 166.408 81.342 166.408 80.9517V73.0238C166.408 72.8342 166.485 72.6558 166.619 72.522C166.752 72.3882 166.93 72.3213 167.119 72.3213C167.119 72.3213 167.608 72.3213 168.319 72.3213C168.73 72.3213 169.141 72.3213 169.518 72.3213H169.529C170.985 72.3213 172.04 72.6781 172.762 73.4252C173.595 74.2949 173.962 75.6441 173.907 77.6958C173.851 79.6917 172.796 80.6729 171.918 81.1412C171.018 81.6207 170.14 81.6542 170.052 81.6542H170.04Z" fill="black"/>
<path d="M192.659 81.7661C192.282 81.7661 191.97 81.4539 191.97 81.0636V72.8792C191.97 72.489 192.282 72.1768 192.659 72.1768C193.037 72.1768 193.337 72.489 193.337 72.8792V81.0636C193.337 81.4539 193.026 81.7661 192.659 81.7661Z" fill="black"/>
<path d="M206.39 81.7992C206.024 81.7992 205.724 81.4982 205.724 81.1302V73.258C205.724 73.1242 205.757 73.0016 205.835 72.8901C205.901 72.7897 206.235 72.3102 206.823 72.2991C207.101 72.2991 207.523 72.3883 207.901 72.9012C208.379 73.5368 211.078 78.153 212.123 79.9482V72.9347C212.123 72.5667 212.423 72.2656 212.789 72.2656C213.156 72.2656 213.456 72.5667 213.456 72.9347V80.8626C213.456 81.0187 213.4 81.1636 213.3 81.2863C212.778 81.9219 211.978 81.8438 211.489 81.4536C211.423 81.3978 211.367 81.342 211.334 81.264C209.923 78.8444 207.801 75.2316 207.046 74.0497V81.1413C207.046 81.5093 206.746 81.8104 206.379 81.8104" fill="black"/>
</g>
<defs>
<clipPath id="clip0_1300_4470">
<rect width="215" height="82" fill="white" transform="translate(0.5)"/>
</clipPath>
</defs>
</svg>
